<?xml version="1.0" encoding="UTF-8" standalone="no"?>
<svg xmlns="http://www.w3.org/2000/svg" version="1.0" width="64" height="64" viewBox="0 0 580 580" id="svg2">
  <!-- Your original lighthouse design with proper colors -->

  <!-- NOTE: REMOVED the black background rectangle completely -->

  <!-- Main lighthouse structure - professional darker blue -->
  <path style="fill:#3d5a7a;fill-opacity:1;stroke:#2c4357;stroke-width:2;stroke-linecap:butt;stroke-linejoin:round;stroke-miterlimit:4;stroke-opacity:1"
        d="M 361.71459,80.721032 C 364.06866,80.721399 365.24586,79.741384 365.24623,77.781001 C 365.24586,76.598174 364.66025,75.618173 363.48938,74.840955 L 291.22544,34.899496 L 219.57102,74.840955 C 218.38762,75.618173 217.79603,76.598174 217.79625,77.781001 C 217.79603,79.741384 218.77604,80.721399 220.73628,80.721032 L 361.71459,80.721032 z M 365.24623,180.60396 C 369.54834,180.60424 371.6996,178.453 371.69997,174.15023 C 371.6996,169.83608 369.54834,167.67885 365.24623,167.67856 L 217.79625,167.67856 C 213.49353,167.67885 211.34229,169.83608 211.34251,174.15023 C 211.34229,178.453 213.49353,180.60424 217.79625,180.60396 L 230.13006,180.60396 L 181.96007,543.67391 L 400.4908,543.67391 L 352.91242,180.60396 L 365.24623,180.60396 z"/>

  <!-- Light beams - more sophisticated muted orange -->
  <path style="opacity:0.9;fill:#d97841;fill-opacity:1;stroke:#c4692c;stroke-width:2;stroke-linecap:butt;stroke-linejoin:round;stroke-miterlimit:4;stroke-opacity:1"
        d="M 239.17868,105.75173 L 35.92179,79.900921 L 36.51338,165.66393 L 239.17868,140.40471 L 239.17868,105.75173 z M 345.88172,139.81312 L 548.54702,165.66393 L 548.54702,79.900921 L 345.88172,105.75173 L 345.88172,139.81312 z"/>

  <!-- Light housing circle - consistent professional blue -->
  <circle style="opacity:1;fill:#3d5a7a;fill-opacity:1;stroke:#2c4357;stroke-width:2;stroke-linecap:round;stroke-linejoin:round;stroke-miterlimit:4;stroke-opacity:1"
          cx="289.94" cy="123.21" r="28"/>
</svg>
