<svg width="56" height="56" viewBox="0 0 56 56" fill="none" xmlns="http://www.w3.org/2000/svg">
  <circle cx="28" cy="28" r="25" fill="#101624" stroke="#6bb6ff" stroke-width="2.5"/>
  <g>
    <!-- WiFi geometric waves -->
    <path d="M16 30h24M16 30c0-4 2-8 6-10M40 30c0-4-2-8-6-10" stroke="#6bb6ff" stroke-width="1.5" stroke-linecap="round" fill="none" opacity="0.4"/>
    <path d="M19 30h18M19 30c0-3 1.5-5 4-6.5M37 30c0-3-1.5-5-4-6.5" stroke="#6bb6ff" stroke-width="1.5" stroke-linecap="round" fill="none" opacity="0.4"/>
    <path d="M22 30h12M22 30c0-2 1-3 2.5-4M34 30c0-2-1-3-2.5-4" stroke="#6bb6ff" stroke-width="1.5" stroke-linecap="round" fill="none" opacity="0.4"/>

    <!-- Router base -->
    <rect x="25" y="30" width="6" height="4" rx="1" fill="#6bb6ff" opacity="0.4"/>

    <!-- Diagonal strikethrough -->
    <line x1="17" y1="17" x2="39" y2="39" stroke="#6bb6ff" stroke-width="3" stroke-linecap="round"/>
  </g>
</svg>
